HIERARCHY
ROOT hip
{
  OFFSET 0 0 0
  CHANNELS 6 Xposition Yposition Zposition Zrotation Yrotation Xrotation
  JOINT abdomen
  {
    OFFSET 0 20.6881 -0.73152
    CHANNELS 3 Zrotation Xrotation Yrotation
    JOINT chest
    {
      OFFSET 0 11.7043 -0.48768
      CHANNELS 3 Zrotation Xrotation Yrotation
      JOINT neck
      {
        OFFSET 0 22.1894 -2.19456
        CHANNELS 3 Zrotation Xrotation Yrotation
        JOINT head
        {
          OFFSET -0.24384 7.07133 1.2192
          CHANNELS 3 Zrotation Xrotation Yrotation
          JOINT leftEye
          {
            OFFSET 4.14528 8.04674 8.04672
            CHANNELS 3 Zrotation Xrotation Yrotation
            End Site
            {
              OFFSET 1 0 0
            }
          }
          JOINT rightEye
          {
            OFFSET -3.6576 8.04674 8.04672
            CHANNELS 3 Zrotation Xrotation Yrotation
            End Site
            {
              OFFSET 1 0 0
            }
          }
        }
      }
      JOINT rCollar
      {
        OFFSET -2.68224 19.2634 -4.8768
        CHANNELS 3 Zrotation Xrotation Yrotation
        JOINT rShldr
        {
          OFFSET -8.77824 -1.95073 1.46304
          CHANNELS 3 Zrotation Xrotation Yrotation
          JOINT rForeArm
          {
            OFFSET -28.1742 -1.7115 0.48768
            CHANNELS 3 Zrotation Xrotation Yrotation
            JOINT rHand
            {
              OFFSET -22.5879 0.773209 7.07136
              CHANNELS 3 Zrotation Xrotation Yrotation
              JOINT rThumb1
              {
                OFFSET -1.2192 -0.487915 3.41376
                CHANNELS 3 Zrotation Xrotation Yrotation
                JOINT rThumb2
                {
                  OFFSET -3.37035 -0.52449 3.41376
                  CHANNELS 3 Zrotation Xrotation Yrotation
                  End Site
                  {
                    OFFSET -1.78271 -1.18214 1.43049
                  }
                }
              }
              JOINT rIndex1
              {
                OFFSET -7.75947 0.938293 5.60832
                CHANNELS 3 Zrotation Xrotation Yrotation
                JOINT rIndex2
                {
                  OFFSET -2.54057 -0.884171 1.56538
                  CHANNELS 3 Zrotation Xrotation Yrotation
                  End Site
                  {
                    OFFSET -1.62519 -0.234802 1.16502
                  }
                }
              }
              JOINT rMid1
              {
                OFFSET -8.24714 1.18213 3.41376
                CHANNELS 3 Zrotation Xrotation Yrotation
                JOINT rMid2
                {
                  OFFSET -3.10165 -0.590103 1.0647
                  CHANNELS 3 Zrotation Xrotation Yrotation
                  End Site
                  {
                    OFFSET -2.48547 -0.328903 0.83742
                  }
                }
              }
              JOINT rRing1
              {
                OFFSET -8.82822 0.546677 1.51678
                CHANNELS 3 Zrotation Xrotation Yrotation
                JOINT rRing2
                {
                  OFFSET -2.60934 -0.819778 -0.0198488
                  CHANNELS 3 Zrotation Xrotation Yrotation
                  End Site
                  {
                    OFFSET -2.33842 -0.294052 0.168128
                  }
                }
              }
              JOINT rPinky1
              {
                OFFSET -8.27202 -0.0477905 -0.4584
                CHANNELS 3 Zrotation Xrotation Yrotation
                JOINT rPinky2
                {
                  OFFSET -1.82734 -0.647385 -0.700984
                  CHANNELS 3 Zrotation Xrotation Yrotation
                  End Site
                  {
                    OFFSET -1.69225 -0.51767 -0.607171
                  }
                }
              }
            }
          }
        }
      }
      JOINT lCollar
      {
        OFFSET 2.68224 19.2634 -4.8768
        CHANNELS 3 Zrotation Xrotation Yrotation
        JOINT lShldr
        {
          OFFSET 8.77824 -1.95073 1.46304
          CHANNELS 3 Zrotation Xrotation Yrotation
          JOINT lForeArm
          {
            OFFSET 28.1742 -1.7115 0.48768
            CHANNELS 3 Zrotation Xrotation Yrotation
            JOINT lHand
            {
              OFFSET 22.5879 0.773209 7.07136
              CHANNELS 3 Zrotation Xrotation Yrotation
              JOINT lThumb1
              {
                OFFSET 1.2192 -0.487915 3.41376
                CHANNELS 3 Zrotation Xrotation Yrotation
                JOINT lThumb2
                {
                  OFFSET 3.37035 -0.52449 3.41376
                  CHANNELS 3 Zrotation Xrotation Yrotation
                  End Site
                  {
                    OFFSET 1.78271 -1.18214 1.43049
                  }
                }
              }
              JOINT lIndex1
              {
                OFFSET 7.75947 0.938293 5.60832
                CHANNELS 3 Zrotation Xrotation Yrotation
                JOINT lIndex2
                {
                  OFFSET 2.54057 -0.884171 1.56538
                  CHANNELS 3 Zrotation Xrotation Yrotation
                  End Site
                  {
                    OFFSET 1.62519 -0.234802 1.16502
                  }
                }
              }
              JOINT lMid1
              {
                OFFSET 8.24714 1.18213 3.41376
                CHANNELS 3 Zrotation Xrotation Yrotation
                JOINT lMid2
                {
                  OFFSET 3.10165 -0.590103 1.0647
                  CHANNELS 3 Zrotation Xrotation Yrotation
                  End Site
                  {
                    OFFSET 2.48547 -0.328903 0.83742
                  }
                }
              }
              JOINT lRing1
              {
                OFFSET 8.82822 0.546677 1.51678
                CHANNELS 3 Zrotation Xrotation Yrotation
                JOINT lRing2
                {
                  OFFSET 2.60934 -0.819778 -0.0198488
                  CHANNELS 3 Zrotation Xrotation Yrotation
                  End Site
                  {
                    OFFSET 2.33842 -0.294052 0.168128
                  }
                }
              }
              JOINT lPinky1
              {
                OFFSET 8.27202 -0.0477905 -0.4584
                CHANNELS 3 Zrotation Xrotation Yrotation
                JOINT lPinky2
                {
                  OFFSET 1.82734 -0.647385 -0.700984
                  CHANNELS 3 Zrotation Xrotation Yrotation
                  End Site
                  {
                    OFFSET 1.69225 -0.51767 -0.607171
                  }
                }
              }
            }
          }
        }
      }
    }
  }
  JOINT rButtock
  {
    OFFSET -8.77824 4.35084 1.2192
    CHANNELS 3 Zrotation Xrotation Yrotation
    JOINT rThigh
    {
      OFFSET 0 -1.70687 -2.19456
      CHANNELS 3 Zrotation Xrotation Yrotation
      JOINT rShin
      {
        OFFSET 0 -36.8199 0.73152
        CHANNELS 3 Zrotation Xrotation Yrotation
        JOINT rFoot
        {
          OFFSET 0.73152 -45.1104 -5.12064
          CHANNELS 3 Zrotation Xrotation Yrotation
          End Site
          {
            OFFSET -1.1221 -3.69964 12.103
          }
        }
      }
    }
  }
  JOINT lButtock
  {
    OFFSET 8.77824 4.35084 1.2192
    CHANNELS 3 Zrotation Xrotation Yrotation
    JOINT lThigh
    {
      OFFSET 0 -1.70687 -2.19456
      CHANNELS 3 Zrotation Xrotation Yrotation
      JOINT lShin
      {
        OFFSET 0 -36.8199 0.73152
        CHANNELS 3 Zrotation Xrotation Yrotation
        JOINT lFoot
        {
          OFFSET -0.73152 -45.1104 -5.12064
          CHANNELS 3 Zrotation Xrotation Yrotation
          End Site
          {
            OFFSET 1.1221 -3.69964 12.103
          }
        }
      }
    }
  }
}
MOTION
Frames:	7
Frame Time:	0.00833333
-118.535 73.6565 2.90904 -11.7464 73.0465 1.4043 -1.86366 20.434 -7.36032 2.12695 0.407049 -2.03225 -7.91435 7.38543 2.04748 20.4733 -39.5326 13.543 -0.0 0.0 0.0 -0.0 0.0 0.0 -1.88716e-13 3.90884e-13 2.92174e-13 88.4643 21.5978 -5.13696 -27.7043 -41.7337 87.1134 -8.01213 -59.733 -13.9191 7.14484e-10 -1.79986e-09 6.06457e-10 1.20071e-09 -3.09712e-09 1.08104e-09 7.14488e-10 -1.79987e-09 6.06452e-10 7.73091 5.47488 0.417314 7.14482e-10 -1.79986e-09 6.06457e-10 2.90554 0.965183 0.102902 7.14486e-10 -1.79986e-09 6.06457e-10 10.2786 0.731801 0.0259123 7.14479e-10 -1.79986e-09 6.06463e-10 2.22167 -0.733487 -0.20892 -1.88805e-13 3.90893e-13 2.91944e-13 -67.3526 36.2849 -7.47765 24.4678 -19.9933 -51.1515 0.184479 -12.1982 1.74072 1.89068e-10 3.1151e-10 -1.06021e-09 3.34257e-10 5.3964e-10 -1.82698e-09 1.89065e-10 3.11509e-10 -1.06019e-09 -7.73091 5.47488 -0.417314 1.89066e-10 3.11508e-10 -1.0602e-09 -2.90554 0.965183 -0.102902 1.89059e-10 3.11508e-10 -1.0602e-09 -10.2786 0.731801 -0.0259123 1.89074e-10 3.11509e-10 -1.06021e-09 -2.22167 -0.733487 0.20892 -2.03217e-16 0.0 -3.88251e-19 -13.5961 -54.3724 -2.37782 -4.2734 78.8066 5.01349 -2.4805 -6.07157 -7.734 2.03217e-16 0.0 3.88251e-19 -6.4035 -8.62196 5.28462 0.240122 46.6664 -1.8394 -2.20564 -9.98348 -13.6981
-116.765 73.2249 3.94471 -11.3144 73.2622 1.7078 -1.98751 20.41 -8.45268 2.52389 0.16808 -2.3144 -7.70661 7.52958 2.67206 20.5086 -39.7437 14.8793 -0.0 0.0 0.0 -0.0 0.0 0.0 -2.02422e-13 3.36059e-13 4.30692e-13 88.7752 22.9773 -5.05919 -27.5091 -42.4863 88.4986 -6.86442 -57.1549 -12.5662 -1.13307e-10 -1.90437e-09 1.34387e-09 -2.54878e-10 -3.17559e-09 2.30906e-09 -1.13303e-10 -1.90437e-09 1.34387e-09 7.73091 5.47488 0.417314 -1.13309e-10 -1.90436e-09 1.34388e-09 2.90554 0.965183 0.102902 -1.13303e-10 -1.90437e-09 1.34387e-09 10.2786 0.731801 0.0259123 -1.13311e-10 -1.90436e-09 1.34388e-09 2.22167 -0.733487 -0.20892 -2.02494e-13 3.36081e-13 4.3049e-13 -65.7757 34.2814 -10.6064 24.669 -20.3996 -51.8201 0.14948 -11.0525 1.57259 -3.11376e-10 2.97937e-10 -1.57465e-09 -5.28764e-10 5.17125e-10 -2.7176e-09 -3.1138e-10 2.97934e-10 -1.57464e-09 -7.73091 5.47488 -0.417314 -3.11378e-10 2.97932e-10 -1.57465e-09 -2.90554 0.965183 -0.102902 -3.11384e-10 2.97932e-10 -1.57465e-09 -10.2786 0.731801 -0.0259123 -3.1137e-10 2.97933e-10 -1.57466e-09 -2.22167 -0.733487 0.20892 -2.03217e-16 0.0 -3.88251e-19 -15.4039 -55.907 -3.70678 -3.44496 76.7616 4.21709 -2.59882 -6.31846 -8.07021 2.03217e-16 0.0 3.88251e-19 -6.2473 -5.70862 4.83934 0.162672 44.3197 -1.89481 -2.26476 -10.2396 -13.9567
-114.972 72.7817 4.96162 -10.8908 73.4663 2.0092 -2.03827 20.3705 -9.55951 2.95786 -0.071424 -2.59659 -7.50518 7.67471 3.32531 20.4608 -39.8948 16.2308 -0.0 0.0 0.0 -0.0 0.0 0.0 -2.13497e-13 2.57716e-13 5.67023e-13 88.8873 24.3423 -4.75965 -27.3054 -43.1695 89.7831 -5.7526 -54.1357 -11.2147 -9.81617e-10 -2.01982e-09 2.0592e-09 -1.779e-09 -3.27493e-09 3.49849e-09 -9.81613e-10 -2.01982e-09 2.0592e-09 7.73091 5.47488 0.417314 -9.8162e-10 -2.01981e-09 2.05921e-09 2.90554 0.965183 0.102902 -9.81609e-10 -2.01982e-09 2.0592e-09 10.2786 0.731801 0.0259123 -9.8162e-10 -2.01981e-09 2.05921e-09 2.22167 -0.733487 -0.20892 -2.13545e-13 2.5775e-13 5.6685e-13 -64.6028 32.3574 -13.3219 24.8378 -20.7517 -52.3813 0.12142 -9.97086 1.41539 -8.41033e-10 3.10362e-10 -2.08715e-09 -1.44222e-09 5.39661e-10 -3.60552e-09 -8.41039e-10 3.10358e-10 -2.08714e-09 -7.73091 5.47488 -0.417314 -8.41036e-10 3.10355e-10 -2.08715e-09 -2.90554 0.965183 -0.102902 -8.4104e-10 3.10355e-10 -2.08715e-09 -10.2786 0.731801 -0.0259123 -8.41027e-10 3.10356e-10 -2.08715e-09 -2.22167 -0.733487 0.20892 -2.03217e-16 0.0 -3.88251e-19 -17.2854 -57.2139 -5.17239 -2.78365 74.4895 3.58382 -2.68919 -6.43977 -8.38033 2.03217e-16 0.0 3.88251e-19 -6.0871 -2.82199 4.40132 0.0905857 41.9408 -1.94046 -2.27244 -10.4016 -14.0399
-113.15 72.3253 5.95744 -10.5084 73.6401 2.2802 -1.96483 20.2855 -10.6662 3.40296 -0.290557 -2.87608 -7.31321 7.75928 4.01108 20.2048 -39.9007 17.5448 -0.0 0.0 0.0 -0.0 0.0 0.0 -2.32151e-13 2.23416e-13 6.58524e-13 88.7258 25.7094 -4.13306 -27.1006 -43.7403 90.9307 -4.74034 -50.8704 -9.94793 -1.62306e-09 -2.17627e-09 2.48762e-09 -2.89991e-09 -3.48577e-09 4.20868e-09 -1.62305e-09 -2.17627e-09 2.48762e-09 7.73091 5.47488 0.417314 -1.62306e-09 -2.17626e-09 2.48763e-09 2.90554 0.965183 0.102902 -1.62305e-09 -2.17627e-09 2.48762e-09 10.2786 0.731801 0.0259123 -1.62306e-09 -2.17626e-09 2.48763e-09 2.22167 -0.733487 -0.20892 -2.32176e-13 2.23452e-13 6.58375e-13 -63.8064 30.7781 -15.5068 24.979 -21.051 -52.875 0.103051 -9.11742 1.29241 -1.13386e-09 3.97846e-10 -2.46252e-09 -1.94692e-09 6.91857e-10 -4.25562e-09 -1.13387e-09 3.9784e-10 -2.46251e-09 -7.73091 5.47488 -0.417314 -1.13386e-09 3.97838e-10 -2.46252e-09 -2.90554 0.965183 -0.102902 -1.13386e-09 3.97837e-10 -2.46252e-09 -10.2786 0.731801 -0.0259123 -1.13385e-09 3.97838e-10 -2.46252e-09 -2.22167 -0.733487 0.20892 -2.03217e-16 0.0 -3.88251e-19 -19.154 -58.2865 -6.65742 -2.29296 72.2122 3.11793 -2.70656 -6.42087 -8.48208 2.03217e-16 0.0 3.88251e-19 -5.97735 -0.00690591 3.99099 0.0225556 39.6196 -1.96695 -2.20633 -10.5527 -13.7644
-111.296 71.8543 6.92993 -10.1947 73.7637 2.5007 -1.76189 20.1705 -11.8119 3.88914 -0.500062 -3.1626 -7.13187 7.77361 4.74911 19.6661 -39.7223 18.8188 -0.0 0.0 0.0 -0.0 0.0 0.0 -2.73354e-13 2.6011e-13 7.14412e-13 88.2034 27.0379 -3.14484 -26.9205 -44.1892 91.869 -3.80824 -47.2579 -8.72974 -2.02571e-09 -2.50259e-09 2.54874e-09 -3.59251e-09 -4.04594e-09 4.30609e-09 -2.02571e-09 -2.50258e-09 2.54873e-09 7.73091 5.47488 0.417314 -2.02571e-09 -2.50258e-09 2.54875e-09 2.90554 0.965183 0.102902 -2.0257e-09 -2.50259e-09 2.54874e-09 10.2786 0.731801 0.0259123 -2.02571e-09 -2.50258e-09 2.54875e-09 2.22167 -0.733487 -0.20892 -2.73355e-13 2.60133e-13 7.14285e-13 -63.2897 29.5609 -17.1821 25.1019 -21.3153 -53.3225 0.0942024 -8.63262 1.22293 -1.10899e-09 6.83078e-10 -2.80072e-09 -1.90274e-09 1.18619e-09 -4.84028e-09 -1.109e-09 6.83072e-10 -2.80072e-09 -7.73091 5.47488 -0.417314 -1.10899e-09 6.83071e-10 -2.80072e-09 -2.90554 0.965183 -0.102902 -1.10899e-09 6.83071e-10 -2.80072e-09 -10.2786 0.731801 -0.0259123 -1.10898e-09 6.83072e-10 -2.80073e-09 -2.22167 -0.733487 0.20892 -2.03217e-16 0.0 -3.88251e-19 -20.934 -59.0765 -8.08079 -1.8984 69.7883 2.74447 -2.61988 -6.18737 -8.29484 2.03217e-16 0.0 3.88251e-19 -5.93666 2.84348 3.5766 -0.0384672 37.2061 -1.97018 -2.07074 -10.7946 -13.0537
-109.409 71.367 7.87652 -9.9641 73.8214 2.6666 -1.45636 20.0332 -12.9891 4.41803 -0.705625 -3.45415 -6.95696 7.74805 5.53075 18.9069 -39.4144 20.0652 -0.0 0.0 0.0 -0.0 0.0 0.0 -3.27578e-13 3.2879e-13 7.50567e-13 87.3426 28.3263 -1.83354 -26.7767 -44.558 92.6037 -2.98573 -43.2398 -7.57254 -2.31239e-09 -2.94246e-09 2.38705e-09 -4.07483e-09 -4.83587e-09 4.03109e-09 -2.31239e-09 -2.94244e-09 2.38703e-09 7.73091 5.47488 0.417314 -2.31239e-09 -2.94245e-09 2.38706e-09 2.90554 0.965183 0.102902 -2.31238e-09 -2.94246e-09 2.38705e-09 10.2786 0.731801 0.0259123 -2.31239e-09 -2.94245e-09 2.38706e-09 2.22167 -0.733487 -0.20892 -3.27551e-13 3.2879e-13 7.50462e-13 -62.9768 28.6076 -18.4584 25.2059 -21.5443 -53.6965 0.0897023 -8.39687 1.1891 -9.11621e-10 1.10336e-09 -3.12852e-09 -1.56048e-09 1.91423e-09 -5.40656e-09 -9.1163e-10 1.10335e-09 -3.12851e-09 -7.73091 5.47488 -0.417314 -9.11622e-10 1.10335e-09 -3.12851e-09 -2.90554 0.965183 -0.102902 -9.11626e-10 1.10335e-09 -3.12852e-09 -10.2786 0.731801 -0.0259123 -9.11616e-10 1.10336e-09 -3.12852e-09 -2.22167 -0.733487 0.20892 -2.03217e-16 0.0 -3.88251e-19 -22.6297 -59.605 -9.4709 -1.57118 67.1667 2.4346 -2.46258 -5.77003 -7.92712 2.03217e-16 0.0 3.88251e-19 -5.93401 5.71275 3.15388 -0.0880262 34.7101 -1.95937 -1.86689 -11.0552 -12.0132
-107.507 70.8507 8.79199 -9.8191 73.8037 2.788 -1.04957 19.8346 -14.112 4.92221 -0.878811 -3.73029 -6.78118 7.68142 6.31703 18.004 -39.0345 21.2526 -0.0 0.0 0.0 -0.0 0.0 0.0 -3.68286e-13 3.98066e-13 7.3434e-13 86.2194 29.6453 -0.196666 -26.6537 -44.8762 93.2185 -2.31485 -39.0835 -6.54163 -2.4178e-09 -3.24816e-09 2.07508e-09 -4.23982e-09 -5.41013e-09 3.50385e-09 -2.41779e-09 -3.24813e-09 2.07504e-09 7.73091 5.47488 0.417314 -2.4178e-09 -3.24816e-09 2.07508e-09 2.90554 0.965183 0.102902 -2.41779e-09 -3.24816e-09 2.07508e-09 10.2786 0.731801 0.0259123 -2.4178e-09 -3.24816e-09 2.07509e-09 2.22167 -0.733487 -0.20892 -3.68234e-13 3.98042e-13 7.34247e-13 -62.8411 27.9993 -19.3585 25.2805 -21.7111 -53.9634 0.0844389 -8.18418 1.1584 -6.148e-10 1.42966e-09 -3.20092e-09 -1.04732e-09 2.47923e-09 -5.53126e-09 -6.14809e-10 1.42965e-09 -3.20092e-09 -7.73091 5.47488 -0.417314 -6.14799e-10 1.42966e-09 -3.20092e-09 -2.90554 0.965183 -0.102902 -6.14804e-10 1.42966e-09 -3.20092e-09 -10.2786 0.731801 -0.0259123 -6.14796e-10 1.42966e-09 -3.20093e-09 -2.22167 -0.733487 0.20892 -2.03217e-16 0.0 -3.88251e-19 -24.2754 -59.9714 -10.8754 -1.32732 64.7055 2.20579 -2.28512 -5.31233 -7.47997 2.03217e-16 0.0 3.88251e-19 -5.96775 8.37009 2.78307 -0.125118 32.462 -1.94332 -1.57709 -11.1541 -10.7343
